<svg xmlns="http://www.w3.org/2000/svg" width="168.596" height="290.576" viewBox="0 0 168.596 290.576">
    <g id="prefix__Grupo_2" data-name="Grupo 2">
        <path id="prefix__Caminho_10" d="M91.847.267S105.1 3.6 109.718 19.4s-4.609 22.413.583 44.077c2.622 10.94 19.685 16.212 26.087 34.917 5.624 16.435-25.411 16.18-25.061 42.7s19.91 19.476 26.293 50.519 12.719 55.736-.758 73.655-106 13.178-106 13.178-19.262.239-30.65-77.134c-3.221-21.9 31.294-5.445 29.159-35.592-1.495-21.105-9.022-21.065-14.642-47.52C9.223 92.283 31.237 86.215 42.68 66.983 49.568 55.4 50.5 30.314 62.8 13.635S91.847.267 91.847.267z" data-name="Caminho 10" transform="rotate(5.13 12.824 278.928)" style="fill:#234d89"/>
    </g>
</svg>
