<svg xmlns="http://www.w3.org/2000/svg" id="prefix__Grupo_49" width="114.276" height="110.466" data-name="Grupo 49" viewBox="0 0 114.276 110.466">
    <defs>
        <style>
            .prefix__cls-2{fill:none;stroke:#fff;opacity:.26}
        </style>
    </defs>
    <path id="prefix__Caminho_74" d="M30.767 3.8c13.954.3 18.894 25.655 27.388 27.215s11.094-10.227 23.228-2.947S87.45 75.22 90.05 78.687s8.58-6.284 15.081 0 17.161 22.361 10.921 25.135-68.124 2.947-76.791 0 3.64-13.694 0-18.721S7.236 54.635 4.072 33.964 16.813 3.5 30.767 3.8z" data-name="Caminho 74" transform="translate(-3.666 -3.796)" style="fill:#234d89"/>
    <path id="prefix__Caminho_76" d="M0 0a97.224 97.224 0 0 1 28.661 28.774c11.566 18.477 17.6 45.135 17.6 45.135" class="prefix__cls-2" data-name="Caminho 76" transform="translate(27.164 36.422)"/>
    <path id="prefix__Caminho_77" d="M2.6-4.3s-5.7 5.4-5.7 18.28 5.7 33.23 5.7 33.23" class="prefix__cls-2" data-name="Caminho 77" transform="translate(70.829 63.12)"/>
</svg>
