<svg xmlns="http://www.w3.org/2000/svg" width="235.014" height="236.452" viewBox="0 0 235.014 236.452">
    <defs>
        <style>
            .prefix__cls-3{fill:#0f0b56;opacity:.14}.prefix__cls-5{fill:#50d97e}.prefix__cls-8{fill:#3474d0}.prefix__cls-10{fill:#1658b7}
        </style>
    </defs>
    <g id="prefix__Grupo_4" data-name="Grupo 4" transform="translate(-1360.28 -272.512)">
        <rect id="prefix__Retângulo_15" width="136.265" height="183.541" data-name="Retângulo 15" rx="8" transform="translate(1404.657 321.475)" style="fill:#00d3ff"/>
        <rect id="prefix__Retângulo_90" width="136.265" height="183.541" data-name="Retângulo 90" rx="8" transform="translate(1417.099 307.478)" style="fill:#fff"/>
        <path id="prefix__Retângulo_17" d="M0 0H45.885V38.933H0z" class="prefix__cls-3" data-name="Retângulo 17" transform="translate(1427.446 323.601)"/>
        <path id="prefix__Retângulo_18" d="M0 0H62.988V25.028H0z" class="prefix__cls-3" data-name="Retângulo 18" transform="translate(1479.866 323.601)"/>
        <path id="prefix__Retângulo_19" d="M0 0H62.988V8.343H0z" class="prefix__cls-3" data-name="Retângulo 19" transform="translate(1479.866 354.191)"/>
        <path id="prefix__Retângulo_20" d="M0 0H115.408V12.514H0z" class="prefix__cls-3" data-name="Retângulo 20" transform="translate(1427.446 376.98)"/>
        <path id="prefix__Retângulo_21" d="M0 0H115.408V12.514H0z" class="prefix__cls-3" data-name="Retângulo 21" transform="translate(1427.446 403.986)"/>
        <path id="prefix__Retângulo_22" d="M0 0H115.408V12.514H0z" class="prefix__cls-3" data-name="Retângulo 22" transform="translate(1427.446 430.992)"/>
        <path id="prefix__Retângulo_23" d="M0 0H115.408V12.514H0z" class="prefix__cls-3" data-name="Retângulo 23" transform="translate(1427.446 457.998)"/>
        <path id="prefix__Caminho_26" d="M2.977 0h37.208a2.977 2.977 0 0 1 2.977 2.977v50.6a2.977 2.977 0 0 1-2.977 2.977l-18.158-8.63-19.05 8.633A2.977 2.977 0 0 1 0 53.58V2.977A2.977 2.977 0 0 1 2.977 0z" data-name="Caminho 26" transform="translate(1529.013 330.381)" style="fill:#1ba84a"/>
        <g id="prefix__if_Approved_2192712" transform="translate(1510.634 272.512)">
            <path id="prefix__Caminho_23" d="M94.383 50.1l-3.52-6.1a5.347 5.347 0 0 1-.717-2.675V34.28a5.35 5.35 0 0 0-2.675-4.633l-6.1-3.52a5.353 5.353 0 0 1-1.958-1.958l-3.52-6.1a5.35 5.35 0 0 0-4.632-2.669h-7.042a5.347 5.347 0 0 1-2.675-.717l-6.1-3.521a5.351 5.351 0 0 0-5.35 0L44 14.677a5.347 5.347 0 0 1-2.675.717H34.28a5.35 5.35 0 0 0-4.633 2.675l-3.52 6.1a5.353 5.353 0 0 1-1.958 1.958l-6.1 3.52a5.35 5.35 0 0 0-2.669 4.632v7.042A5.347 5.347 0 0 1 14.678 44l-3.521 6.1a5.351 5.351 0 0 0 0 5.35l3.52 6.1a5.347 5.347 0 0 1 .717 2.675v7.035a5.35 5.35 0 0 0 2.675 4.633l6.1 3.52a5.353 5.353 0 0 1 1.958 1.958l3.52 6.1a5.35 5.35 0 0 0 4.633 2.675h7.042a5.347 5.347 0 0 1 2.678.716l6.1 3.52a5.351 5.351 0 0 0 5.35 0l6.1-3.52a5.347 5.347 0 0 1 2.675-.717h7.042A5.35 5.35 0 0 0 75.9 87.47l3.52-6.1a5.353 5.353 0 0 1 1.958-1.958l6.1-3.52a5.35 5.35 0 0 0 2.675-4.633v-7.041a5.347 5.347 0 0 1 .717-2.675l3.52-6.1a5.346 5.346 0 0 0-.007-5.343zM52.77 84.871a32.1 32.1 0 1 1 32.1-32.1 32.1 32.1 0 0 1-32.1 32.1z" class="prefix__cls-5" data-name="Caminho 23" transform="translate(-10.44 -10.44)"/>
            <path id="prefix__Caminho_24" d="M56.357 24a32.357 32.357 0 1 0 32.357 32.357A32.394 32.394 0 0 0 56.357 24zm-2.233 48.583z" class="prefix__cls-5" data-name="Caminho 24" transform="translate(-14.027 -14.027)"/>
            <path id="prefix__Caminho_25" d="M52.218 24a28.218 28.218 0 1 0 28.219 28.218A28.251 28.251 0 0 0 52.218 24z" data-name="Caminho 25" transform="translate(-9.888 -9.888)" style="fill:none;stroke:#fff;stroke-width:2px"/>
        </g>
        <g id="prefix__Grupo_5" data-name="Grupo 5" transform="translate(1565.912 475.513)" style="opacity:.49">
            <path id="prefix__Caminho_27" d="M0 .22l4.37 1.624L8.795 0 6.223 3.292l2.909 4.6-4.715-1.984L.331 8.464l2.215-4.286z" class="prefix__cls-8" data-name="Caminho 27" transform="rotate(51.98 -18.248 17.357)"/>
            <path id="prefix__Caminho_29" d="M0 .128l2.543.945L5.118 0l-1.5 1.915 1.696 2.677L2.57 3.438.193 4.925l1.289-2.494z" class="prefix__cls-8" data-name="Caminho 29" transform="rotate(51.98 3.918 8.041)"/>
            <path id="prefix__Caminho_28" d="M0 .348L6.92 2.92 13.927 0 9.854 5.212l4.607 7.288-7.467-3.144L.524 13.4l3.508-6.784z" class="prefix__cls-8" data-name="Caminho 28" transform="rotate(51.98 3.315 19.589)"/>
        </g>
        <g id="prefix__Grupo_6" data-name="Grupo 6" transform="translate(1360.28 277.249)" style="opacity:.56">
            <path id="prefix__Caminho_30" d="M0 .648l12.885 4.788L25.931 0l-7.583 9.7 8.578 13.563-13.9-5.849-12.05 7.541 6.531-12.636z" class="prefix__cls-10" data-name="Caminho 30" transform="rotate(51.98 9.827 20.167)"/>
            <path id="prefix__Caminho_31" d="M0 .206l4.09 1.52L8.231 0 5.825 3.081l2.723 4.305L4.134 5.53.31 7.922 2.383 3.91z" class="prefix__cls-10" data-name="Caminho 31" transform="rotate(89.03 -.177 37.715)"/>
        </g>
    </g>
</svg>
