<svg xmlns="http://www.w3.org/2000/svg" id="prefix__Grupo_51" width="160.301" height="192.456" data-name="Grupo 51" viewBox="0 0 160.301 192.456">
    <defs>
        <style>
            .prefix__cls-2{fill:#22e9de}
        </style>
    </defs>
    <path id="prefix__Caminho_78" d="M0 0s11.888 21.87 13.01 61.684-8.524 97.573-8.524 97.573" data-name="Caminho 78" transform="translate(65.619 32.951)" style="fill:none;stroke:#22e9de;stroke-width:3px"/>
    <path id="prefix__Caminho_79" d="M26.41 0c12.425 0 22.5 5.021 22.5 11.215s-10.075 11.216-22.5 11.216S.416 11.413.008 9.088 13.985 0 26.41 0z" class="prefix__cls-2" data-name="Caminho 79" transform="rotate(-36 152.844 -79.55)"/>
    <path id="prefix__Caminho_80" d="M46.585 0C68.5 0 86.267 9.386 86.267 20.964S68.5 41.928 46.585 41.928.735 21.334.015 16.987 24.669 0 46.585 0z" class="prefix__cls-2" data-name="Caminho 80" transform="rotate(-36 251.936 -30.179)"/>
    <path id="prefix__Caminho_81" d="M29.145 0c13.711 0 24.827 6.53 24.827 14.585S42.856 29.171 29.145 29.171.46 14.842.009 11.819 15.433 0 29.145 0z" class="prefix__cls-2" data-name="Caminho 81" transform="rotate(-141 65.63 81.375)"/>
    <path id="prefix__Caminho_82" d="M43.168 0c20.308 0 36.771 9.672 36.771 21.6S63.476 43.2 43.167 43.2.681 21.984.014 17.5 22.859 0 43.168 0z" class="prefix__cls-2" data-name="Caminho 82" transform="rotate(-141 54.876 56.247)"/>
    <path id="prefix__Caminho_83" d="M15.785 0c7.426 0 13.446 3.537 13.446 7.9s-6.02 7.9-13.446 7.9S.249 8.039.005 6.4 8.359 0 15.785 0z" class="prefix__cls-2" data-name="Caminho 83" transform="rotate(-159 41.698 24.992)"/>
    <path id="prefix__Caminho_84" d="M18.563 0C27.3 0 34.375 3.127 34.375 6.985S27.3 13.97 18.563 13.97.293 7.108.006 5.66 9.83 0 18.563 0z" class="prefix__cls-2" data-name="Caminho 84" transform="rotate(-70 53.014 -26.632)"/>
</svg>
