<svg xmlns="http://www.w3.org/2000/svg" width="68.571" height="80" viewBox="0 0 68.571 80">
    <path id="prefix__ic_local_mall_24px" d="M63.952 20.048h-7.619a19.048 19.048 0 1 0-38.1 0h-7.614a7.609 7.609 0 0 0-7.581 7.619L3 73.381A7.641 7.641 0 0 0 10.619 81h53.333a7.641 7.641 0 0 0 7.619-7.619V27.667a7.641 7.641 0 0 0-7.619-7.619zM37.286 8.619a11.413 11.413 0 0 1 11.428 11.429H25.857A11.413 11.413 0 0 1 37.286 8.619zm0 38.1a19.055 19.055 0 0 1-19.048-19.052h7.619a11.429 11.429 0 0 0 22.857 0h7.619a19.055 19.055 0 0 1-19.047 19.047z" transform="translate(-3 -1)" style="fill:#00d3ff"/>
</svg>
