<svg xmlns="http://www.w3.org/2000/svg" width="54.602" height="58.14" viewBox="0 0 54.602 58.14">
    <path id="prefix__if_quotes_1_676856" d="M59.6 40.521V55.3a5.8 5.8 0 0 1-5.8 5.79H40.732a5.787 5.787 0 0 1-5.789-5.79V40.2c0-11.131 1.306-18.775 3.986-23.788a32.316 32.316 0 0 1 12.14-12.735A5.043 5.043 0 0 1 57.943 5.3l.159.253a5.028 5.028 0 0 1-1.416 6.83 18.863 18.863 0 0 0-5.815 6.231c-2.171 3.735-3.359 9.052-3.615 16.086H53.8a5.823 5.823 0 0 1 5.8 5.819zm-29.943 0V55.3a5.808 5.808 0 0 1-5.814 5.79H10.831A5.823 5.823 0 0 1 5 55.3V40.2c0-11.134 1.327-18.777 4.007-23.791a32.366 32.366 0 0 1 12.15-12.732 5.05 5.05 0 0 1 6.88 1.62l.161.253a5.028 5.028 0 0 1-1.416 6.83 18.867 18.867 0 0 0-5.814 6.231c-2.168 3.738-3.356 9.055-3.613 16.089h6.49a5.834 5.834 0 0 1 5.814 5.821z" transform="translate(-5 -2.948)" style="fill:#00d3ff;opacity:.2"/>
</svg>
